<svg width="340" height="72" viewBox="0 0 340 72" fill="none" xmlns="http://www.w3.org/2000/svg">
  <!-- wave mark: same three strokes as src/components/Logo.astro, scaled into a 56x56 box -->
  <g transform="translate(4, 8) scale(2.0)">
    <path d="M2 9c2.4 0 2.4-2.5 4.8-2.5S9.2 9 11.6 9 14 6.5 16.4 6.5 18.8 9 21.2 9s2.4-2.5 4.8-2.5" stroke="#5DCAA5" stroke-width="2" stroke-linecap="round"/>
    <path d="M2 14c2.4 0 2.4-2.5 4.8-2.5S9.2 14 11.6 14s2.4-2.5 4.8-2.5S18.8 14 21.2 14s2.4-2.5 4.8-2.5" stroke="#1D6A72" stroke-width="2" stroke-linecap="round"/>
    <path d="M2 19c2.4 0 2.4-2.5 4.8-2.5S9.2 19 11.6 19s2.4-2.5 4.8-2.5S18.8 19 21.2 19s2.4-2.5 4.8-2.5" stroke="#1D6A72" stroke-width="2" stroke-linecap="round" stroke-opacity="0.5"/>
  </g>
  <text x="70" y="46" font-family="Source Serif 4 SemiBold, Source Serif 4, Georgia, serif" font-size="30" font-weight="600" letter-spacing="-0.5" fill="#2C2C2A">Coastal Workflows</text>
</svg>
